<?xml version="1.0" encoding="UTF-8"?>
<!-- Converted by misc2svg (http://www.network-science.de/tools/misc2svg/) -->
<svg xmlns="http://www.w3.org/2000/svg" xmlns:xlink="http://www.w3.org/1999/xlink" width="765pt" height="990pt" viewBox="0 0 765 990" version="1.1">
<defs>
<clipPath id="clip1">
  <path d="M 0 0 L 765 0 L 765 990 L 0 990 L 0 0 Z M 0 0 "/>
</clipPath>
</defs>
<g id="misc2svg">
<g clip-path="url(#clip1)" clip-rule="nonzero">
<path style=" stroke:none;fill-rule:nonzero;fill:rgb(26.27451%,37.254902%,66.27451%);fill-opacity:1;" d="M 355.515625 566.136719 L 355.515625 548.128906 L 329.878906 522.484375 L 304.238281 496.84375 L 341.035156 460.585938 C 361.273438 440.640625 379.214844 423.050781 380.902344 421.503906 L 383.96875 418.679688 L 422.554688 457.484375 C 443.773438 478.828125 461.136719 496.453125 461.136719 496.648438 C 461.136719 497.109375 448.539062 510.308594 427.820312 531.554688 L 411.660156 548.125 L 411.648438 565.75 L 411.640625 583.378906 L 413.207031 583.125 C 415.21875 582.796875 427.113281 577.03125 431.84375 574.085938 C 455.074219 559.652344 470.898438 534.941406 473.9375 508.351562 C 474.511719 503.324219 474.515625 491.503906 473.945312 486.097656 C 471.597656 463.773438 460.375 442.429688 443.335938 427.867188 C 429.453125 416 413.628906 408.757812 396.148438 406.265625 C 389.507812 405.316406 377.289062 405.316406 370.570312 406.269531 C 351.402344 408.980469 334.277344 417.308594 320.667969 430.542969 C 312.65625 438.328125 307.492188 445.484375 302.453125 455.761719 C 291.207031 478.707031 289.257812 502.617188 296.761719 525.507812 C 298.769531 531.621094 302.742188 540.132812 305.820312 544.902344 C 313.160156 556.285156 325.851562 568.929688 335.855469 574.84375 C 341.898438 578.40625 353.539062 584.0625 354.964844 584.121094 C 355.394531 584.140625 355.515625 580.257812 355.515625 566.136719 M 355.082031 604.414062 C 346.765625 602.1875 330.304688 594.648438 322.804688 589.644531 C 308.304688 579.964844 295.175781 565.667969 286.703125 550.335938 C 279.960938 538.128906 274.9375 523.027344 273.25 509.898438 C 272.46875 503.789062 272.609375 489.515625 273.5 483.601562 C 276.605469 463.078125 284.808594 443.441406 296.671875 428.140625 C 300.273438 423.492188 307.765625 415.726562 312.3125 411.921875 C 320.648438 404.957031 332.441406 398.246094 343.976562 393.90625 C 366.402344 385.464844 391.21875 384.371094 413.902344 390.824219 C 423.550781 393.570312 435.4375 398.8125 443.625 403.925781 C 452.265625 409.332031 462.914062 418.835938 469.5 427.039062 C 481.722656 442.246094 490.292969 462.867188 493.203125 484.042969 C 494.273438 491.835938 493.921875 509.058594 492.546875 515.863281 C 486.078125 548.03125 466.347656 576.214844 439.171875 592.117188 C 433.144531 595.640625 423.609375 600.121094 417.597656 602.246094 C 408.734375 605.382812 401.804688 606.191406 398.128906 604.515625 C 395.738281 603.433594 393.179688 600.738281 392.664062 598.769531 C 392.101562 596.585938 391.78125 588.089844 391.3125 562.492188 L 390.90625 540.617188 L 406.921875 524.484375 C 430.226562 501.015625 433.84375 497.1875 433.429688 496.445312 C 433.070312 495.804688 410.96875 472.855469 393.824219 455.316406 L 384.3125 445.59375 L 358.867188 471.007812 C 344.867188 484.980469 333.417969 496.601562 333.417969 496.832031 C 333.417969 497.0625 343.050781 506.90625 354.824219 518.710938 L 376.230469 540.171875 L 375.820312 562.265625 C 375.347656 587.621094 374.824219 598.03125 373.914062 600.203125 C 373.167969 601.996094 370.976562 603.765625 368.355469 604.6875 C 365.625 605.648438 359.195312 605.523438 355.082031 604.414062 "/>
<path style="fill:none;stroke-width:1;stroke-linecap:butt;stroke-linejoin:miter;stroke:rgb(26.27451%,37.254902%,66.27451%);stroke-opacity:1;stroke-miterlimit:4;" d="M -0.0006 -0.000175 L -0.0006 14.406075 L -20.509975 34.9217 L -41.022475 55.431075 L -11.584975 84.44045 C 4.60565 100.3967 18.958775 114.468575 20.308775 115.706075 L 22.7619 117.962325 L 53.63065 86.9217 C 70.60565 69.8467 84.496275 55.743575 84.496275 55.587325 C 84.496275 55.2217 74.41815 44.662325 57.846275 27.66545 L 44.915025 14.4092 L 44.908775 0.306075 L 44.8994 -13.793925 L 46.152525 -13.5908 C 47.7619 -13.3283 57.277525 -8.7158 61.065025 -6.35955 C 79.646275 5.187325 92.30565 24.956075 94.7369 46.22795 C 95.196275 50.249825 95.1994 59.706075 94.74315 64.031075 C 92.865025 81.89045 83.8869 98.962325 70.25565 110.61545 C 59.1494 120.1092 46.490025 125.899825 32.50565 127.8967 C 27.19315 128.656075 17.41815 128.656075 12.04315 127.893575 C -3.291225 125.724825 -16.991225 119.062325 -27.878725 108.474825 C -34.2881 102.243575 -38.41935 96.5217 -42.4506 88.299825 C -51.447475 69.943575 -53.00685 50.81545 -47.003725 32.50295 C -45.397475 27.612325 -42.216225 20.80295 -39.75685 16.987325 C -33.884975 7.881075 -23.73185 -2.23455 -15.728725 -6.9658 C -10.89435 -9.818925 -1.58185 -14.3408 -0.441225 -14.387675 C -0.097475 -14.4033 -0.0006 -11.29705 -0.0006 -0.000175 Z M -0.347475 -30.62205 C -6.997475 -28.8408 -20.16935 -22.80955 -26.16935 -18.806425 C -37.76935 -11.062675 -48.272475 0.374825 -55.0506 12.64045 C -60.44435 22.406075 -64.4631 34.487325 -65.809975 44.99045 C -66.434975 49.87795 -66.3256 61.2967 -65.6131 66.024825 C -63.128725 82.4467 -56.566225 98.156075 -47.0756 110.3967 C -44.19435 114.11545 -38.2006 120.32795 -34.559975 123.368575 C -27.89435 128.943575 -18.459975 134.312325 -9.23185 137.7842 C 8.708775 144.537325 28.565025 145.412325 46.708775 140.249825 C 54.427525 138.05295 63.940025 133.8592 70.4869 129.768575 C 77.3994 125.443575 85.91815 117.837325 91.190025 111.274825 C 100.965025 99.112325 107.821275 82.61545 110.1494 65.674825 C 111.00565 59.44045 110.7244 45.662325 109.627525 40.218575 C 104.4494 14.4842 88.665025 -8.062675 66.9244 -20.787675 C 62.102525 -23.6033 54.4744 -27.187675 49.665025 -28.887675 C 42.5744 -31.39705 37.033775 -32.043925 34.090025 -30.7033 C 32.177525 -29.837675 30.13065 -27.681425 29.721275 -26.106425 C 29.26815 -24.35955 29.0119 -17.562675 28.6369 2.91545 L 28.315025 20.41545 L 41.127525 33.3217 C 59.76815 52.0967 62.6619 55.1592 62.33065 55.75295 C 62.04315 56.26545 44.3619 74.624825 30.646275 88.656075 L 23.0369 96.431075 L 2.68065 76.10295 C -8.51935 64.924825 -17.678725 55.62795 -17.678725 55.443575 C -17.678725 55.2592 -9.972475 47.3842 -0.553725 37.94045 L 16.571275 20.7717 L 16.24315 3.0967 C 15.865025 -17.187675 15.446275 -25.5158 14.721275 -27.256425 C 14.121275 -28.687675 12.36815 -30.1033 10.271275 -30.8408 C 8.0869 -31.60955 2.94315 -31.50955 -0.347475 -30.62205 Z M -0.347475 -30.62205 " transform="matrix(1.25,0,0,-1.25,355.516375,566.1365)"/>
</g>
</g>
</svg>
